<svg xmlns="http://www.w3.org/2000/svg" viewBox="0 0 249.73 37.4"><defs><style>.cls-1{fill:#333;}.cls-2{fill:#1d1d1b;}.cls-3{fill:#ece326;}.cls-4{fill:#c69c6b;}.cls-5{fill:#fbcc34;}.cls-6{fill:#d67161;}</style></defs><g id="Layer_2" data-name="Layer 2"><g id="Layer_1-2" data-name="Layer 1"><polygon class="cls-1" points="50.16 2.71 48.92 3.79 50.26 4.33 50.16 2.71"/><polygon points="51.07 11.91 48.12 19.82 50.34 25.9 45.85 25.9 43.83 31.33 52.31 31.33 54.2 36.49 60.02 36.49 51.07 11.91"/><path class="cls-2" d="M32.56,4.62l-3.9,5.78a15.86,15.86,0,0,0-9.77-3.06c-5.63,0-11.12,5.24-11.12,11.36s5.49,11.36,11.12,11.36A15.86,15.86,0,0,0,28.66,27l3.9,5.78A23.47,23.47,0,0,1,18.89,37.4C9.1,37.4,0,30.24,0,18.7S9.1,0,18.89,0A23.47,23.47,0,0,1,32.56,4.62Z"/><path class="cls-2" d="M82.64,21.06c0,5.67-4,10.27-9.62,10.27H68.08V36.5H62.62V10.8H73C78.65,10.8,82.64,15.4,82.64,21.06ZM68.08,25.63h4.41A4.59,4.59,0,0,0,77,21.06a4.51,4.51,0,0,0-4.49-4.56H68.08Z"/><path class="cls-2" d="M91.1,10.8h15.31v5.5h-7.8V36.5H93V16.3h-7.8V10.8Z"/><path class="cls-2" d="M110,10.8h5.46V36.5H110Z"/><path class="cls-2" d="M145.74,23.65a13.56,13.56,0,1,1-13.56-13.5A13.53,13.53,0,0,1,145.74,23.65Zm-21.55,0a8,8,0,1,0,16,0,8,8,0,1,0-16,0Z"/><path class="cls-2" d="M166.47,10.8h4.16V36.5h-4.84L154.3,21.37V36.5h-5.47V10.8h4.85l11.49,15.13V10.8Z"/><path class="cls-2" d="M188.41,10.8l9.36,25.7h-5.83l-1.88-5.17h-9.13l-1.88,5.17h-5.83l9.36-25.7ZM182.9,25.9h5.19l-2.6-7.11Z"/><path class="cls-2" d="M200.36,10.8h5.47V36.5h-5.47Z"/><path class="cls-2" d="M229.48,21.06a10,10,0,0,1-6.61,9.8l6.68,5.64H222l-6-4.91-1.09,0V36.5h-5.47V10.8h10.41C225.5,10.8,229.48,15.4,229.48,21.06Zm-14.55,4.57h4.41a4.58,4.58,0,0,0,4.48-4.57,4.5,4.5,0,0,0-4.48-4.56h-4.41Z"/><path class="cls-2" d="M238.12,10.8h11.61v5.47H238.12v4.85H249.3v5.05H238.12V31h11.61V36.5H232.66V10.8Z"/><rect class="cls-3" x="30.02" y="17.39" width="25.83" height="6.2" transform="translate(7.95 52.74) rotate(-68.18)"/><polygon class="cls-4" points="50.16 2.71 44.85 7.36 50.62 9.66 50.16 2.71"/><rect class="cls-5" x="32.02" y="20.35" width="25.83" height="1.89" transform="translate(8.46 55.1) rotate(-68.18)"/><rect class="cls-6" x="34.13" y="31.77" width="6.91" height="4.19" rx="0.62" transform="translate(15.28 -11.54) rotate(21.82)"/><polygon class="cls-1" points="50.16 2.71 48.7 3.99 50.29 4.63 50.16 2.71"/></g></g></svg>